<svg xmlns="http://www.w3.org/2000/svg" xmlns:svg="http://www.w3.org/2000/svg" id="svg8" width="100mm" height="100mm" version="1.1" viewBox="0 0 100 100"><defs id="defs2"><clipPath id="clipPath4562" clipPathUnits="userSpaceOnUse"><rect id="rect4564" width="99.811" height="98.866" x="-124.921" y="13.04" clip-path="none" ry="4.158" style="fill:#a00;stroke-width:.26458332"/></clipPath><clipPath id="clipPath4578" clipPathUnits="userSpaceOnUse"><rect id="rect4580" width="99.811" height="97.931" x="-120.007" y="1.512" ry="4.158" style="fill:#a00;stroke-width:.26458332"/></clipPath></defs><metadata id="metadata5"/><g id="layer2" style="display:inline"><rect id="rect4535" width="100" height="25.165" x="0" y="0" ry="4.914" style="fill:#de8787;stroke-width:.13272627"/><rect style="fill:#501616;stroke-width:.13272627" id="rect4566" width="100" height="25.165" x=".189" y="74.958" ry="4.914"/><rect style="fill:#a00;stroke-width:.26458332" id="rect914" width="99.811" height="97.931" x=".189" y="1.134" ry="4.158"/><path id="path61" d="m 97.234379,149.70387 0.28348,94.58853 c 0,0 0.75595,3.1183 3.496281,3.87426 h 28.91518 c 0,0 3.30729,-0.94494 3.87426,-3.59077 v -7.74852 c 0,0 -0.94494,-3.1183 -3.68527,-3.59077 -2.74033,-0.47247 -18.23735,0 -18.23735,0 v -82.96577 c 0,0 -0.47247,-3.68526 -3.40179,-3.77976 h -7.46503 c 0,0 -2.834821,-0.0945 -3.779761,3.2128 z m -40.72672,-3.30742 -32.22284,0.0946 c 0,0 -11.24479,1.32285 -11.24479,11.15022 l 0.0946,25.22999 -10.866522,0.18914 c 0,0 -9.35491,-0.8503 -11.24479,10.77247 l 0.47232,47.05759 c 0,0 1.79532,21.82849 21.733562,21.63951 19.93824,-0.18899 21.73356,-21.54494 21.73356,-21.54494 l 14.45751,-0.0946 c 0,0 1.22835,21.734 21.73356,21.63951 0,0 21.1671,-0.28386 21.73407,-21.63951 0,0 -0.28348,-10.01622 -7.27604,-16.34732 v -24.28483 c 0,0 0.28326,-3.21309 -0.94516,-5.66993 -1.22842,-2.45685 -17.85938,-41.76593 -17.85938,-41.76593 0,0 -1.88966,-5.19754 -10.29963,-6.42596 z m -28.86542,14.55415 26.45989,0.13384 17.10489,39.28856 -0.13332,3.87521 h -21.91598 l -21.38164,-21.38112 z m -14.52107,69.22316 a 10.657372,10.657372 0 0 1 10.65722,10.65723 10.657372,10.657372 0 0 1 -10.65722,10.65723 10.657372,10.657372 0 0 1 -10.657752,-10.65723 10.657372,10.657372 0 0 1 10.657752,-10.65723 z m 58.20833,0 a 10.657372,10.657372 0 0 1 10.65723,10.65723 10.657372,10.657372 0 0 1 -10.65723,10.65723 10.657372,10.657372 0 0 1 -10.65775,-10.65723 10.657372,10.657372 0 0 1 10.65775,-10.65723 z" style="fill:none;stroke:#000;stroke-width:.26458332px;stroke-linecap:butt;stroke-linejoin:miter;stroke-opacity:1"/><path style="display:inline;opacity:.476;fill:#500;stroke:none;stroke-width:.26458332px;stroke-linecap:butt;stroke-linejoin:miter;stroke-opacity:1" id="path4576" d="m -92.911273,23.247206 -27.285157,27.28811 v 49.842664 h 37.697532 17.674503 l 29.218074,-29.216604 -13.586893,-4.10161 -3.29823,-44.78112 -13.501505,13.50151 -6.362234,-9.16857 -20.55609,-3.36438" clip-path="url(#clipPath4578)" transform="translate(120.21264,-0.31639914)"/><path style="fill:#501616;stroke:none;stroke-width:.1309201px;stroke-linecap:butt;stroke-linejoin:miter;stroke-opacity:1" id="path4582" d="m 65.712353,24.643945 0.14027,46.803935 c 0,0 0.374059,1.542981 1.730014,1.917051 h 14.307701 c 0,0 1.636494,-0.467579 1.917043,-1.776775 v -3.834094 c 0,0 -0.467568,-1.542985 -1.823534,-1.77677 -1.355955,-0.233787 -9.024128,0 -9.024128,0 V 24.924486 c 0,0 -0.23379,-1.823526 -1.683265,-1.870286 h -3.693817 c 0,0 -1.402715,-0.04676 -1.870284,1.589745 z M 45.560112,23.00738 29.615728,23.05418 c 0,0 -5.564103,0.654568 -5.564103,5.517309 l 0.04681,12.484207 -5.376931,0.09359 c 0,0 -4.628961,-0.420742 -5.564104,5.330392 l 0.233712,23.284857 c 0,0 0.888353,10.801089 10.754117,10.707579 9.865764,-0.09354 10.754117,-10.660784 10.754117,-10.660784 l 7.153819,-0.04682 c 0,0 0.607805,10.754338 10.75411,10.707578 0,0 10.473823,-0.140456 10.754372,-10.707578 0,0 -0.140269,-4.956187 -3.600297,-8.088919 V 49.659084 c 0,0 0.14016,-1.589888 -0.467689,-2.805573 -0.607837,-1.215689 -8.83711,-20.666457 -8.83711,-20.666457 0,0 -0.935026,-2.571826 -5.096422,-3.179669 z m -14.283078,7.201629 13.092779,0.06622 8.463775,19.440614 -0.06602,1.917516 H 41.923187 L 31.343205,41.053641 Z m -7.18526,34.252739 a 5.2734399,5.2734399 0 0 1 5.273364,5.27337 5.2734399,5.2734399 0 0 1 -5.273364,5.273369 5.2734399,5.2734399 0 0 1 -5.273628,-5.273369 5.2734399,5.2734399 0 0 1 5.273628,-5.27337 z m 28.802424,0 a 5.2734399,5.2734399 0 0 1 5.273363,5.27337 5.2734399,5.2734399 0 0 1 -5.273363,5.273369 5.2734399,5.2734399 0 0 1 -5.273626,-5.273369 5.2734399,5.2734399 0 0 1 5.273626,-5.27337 z"/><path id="path61-3" d="m 67.229989,22.903912 0.14027,46.803935 c 0,0 0.374059,1.542981 1.730014,1.917051 h 14.307701 c 0,0 1.636494,-0.467579 1.917043,-1.776775 v -3.834094 c 0,0 -0.467568,-1.542985 -1.823534,-1.77677 -1.355955,-0.233787 -9.024128,0 -9.024128,0 V 23.184453 c 0,0 -0.23379,-1.823526 -1.683265,-1.870286 h -3.693817 c 0,0 -1.402715,-0.04676 -1.870284,1.589745 z m -20.152241,-1.636565 -15.944384,0.0468 c 0,0 -5.564103,0.654568 -5.564103,5.517309 l 0.04681,12.484207 -5.376931,0.09359 c 0,0 -4.628961,-0.420742 -5.564104,5.330392 l 0.233712,23.284857 c 0,0 0.888353,10.801089 10.754117,10.707579 9.865764,-0.09354 10.754117,-10.660784 10.754117,-10.660784 l 7.153819,-0.04682 c 0,0 0.607805,10.754338 10.75411,10.707578 0,0 10.473823,-0.140456 10.754372,-10.707578 0,0 -0.140269,-4.956187 -3.600297,-8.088919 V 47.919051 c 0,0 0.14016,-1.589888 -0.467689,-2.805573 -0.607837,-1.215689 -8.83711,-20.666457 -8.83711,-20.666457 0,0 -0.935026,-2.571826 -5.096422,-3.179669 z m -14.283078,7.201629 13.092779,0.06622 8.463775,19.440614 -0.06602,1.917516 H 43.440823 L 32.860841,39.313608 Z m -7.18526,34.252739 a 5.2734399,5.2734399 0 0 1 5.273364,5.27337 5.2734399,5.2734399 0 0 1 -5.273364,5.273369 5.2734399,5.2734399 0 0 1 -5.273628,-5.273369 5.2734399,5.2734399 0 0 1 5.273628,-5.27337 z m 28.802424,0 a 5.2734399,5.2734399 0 0 1 5.273363,5.27337 5.2734399,5.2734399 0 0 1 -5.273363,5.273369 5.2734399,5.2734399 0 0 1 -5.273626,-5.273369 5.2734399,5.2734399 0 0 1 5.273626,-5.27337 z" style="fill:#fff;stroke:#fff;stroke-width:.1309201px;stroke-linecap:butt;stroke-linejoin:miter;stroke-opacity:1"/></g></svg>